<?xml version="1.0" encoding="utf-8"?>
<!-- Generator: Adobe Illustrator 25.2.1, SVG Export Plug-In . SVG Version: 6.00 Build 0)  -->
<svg version="1.1" id="Layer_1" xmlns="http://www.w3.org/2000/svg" xmlns:xlink="http://www.w3.org/1999/xlink" x="0px" y="0px"
	 viewBox="0 0 28.3 27.5" style="enable-background:new 0 0 28.3 27.5;" xml:space="preserve">
<style type="text/css">
	.st0{fill:#FFFFFF;}
</style>
<g id="Hamburger_1_" transform="translate(-697.535 -13)">
	<path id="Line_218_1_" class="st0" d="M718.6,30.1l-16.2-16.4l0.7-0.7l16.2,16.4L718.6,30.1z"/>
	<path id="Line_219_1_" class="st0" d="M719.4,13.8l-16.2,16.4l-0.7-0.7l16.2-16.4L719.4,13.8z"/>
	<path id="Path_21427" class="st0" d="M705.1,38.9c-0.3,0.4-0.7,0.8-1.2,1s-1.2,0.4-1.8,0.4c-0.5,0-1.1-0.1-1.6-0.3
		s-0.9-0.5-1.3-0.9c-0.4-0.4-0.6-0.8-0.8-1.3s-0.3-1.1-0.3-1.6s0.1-1.1,0.3-1.6s0.5-0.9,0.8-1.2c0.4-0.4,0.8-0.6,1.3-0.9
		c0.5-0.2,1.1-0.3,1.6-0.3c0.2,0,0.5,0,0.8,0.1s0.5,0.2,0.8,0.2c0.2,0.1,0.5,0.2,0.7,0.4s0.4,0.3,0.5,0.5l-0.8,0.6
		c-0.2-0.3-0.5-0.5-0.8-0.6s-0.7-0.2-1.1-0.2c-0.4,0-0.8,0.1-1.2,0.2c-0.4,0.2-0.7,0.4-0.9,0.7s-0.5,0.6-0.6,1
		c-0.2,0.4-0.2,0.8-0.2,1.2s0.1,0.9,0.2,1.2c0.2,0.4,0.3,0.7,0.5,1s0.5,0.5,0.9,0.6c0.4,0.2,0.8,0.2,1.2,0.2s0.8-0.1,1.2-0.2
		c0.4-0.2,0.6-0.5,0.8-0.8L705.1,38.9z M707.2,40.1h-1v-8.2h1V40.1z M714.1,37.5c0,0.4-0.1,0.8-0.2,1.1s-0.3,0.6-0.6,0.9
		c-0.2,0.2-0.5,0.5-0.8,0.5c-0.7,0.2-1.5,0.2-2.2,0c-0.3-0.2-0.6-0.3-0.8-0.5S709,39,709,38.6c-0.2-0.3-0.2-0.7-0.2-1.1
		s0.1-0.8,0.2-1.1c0.2-0.3,0.3-0.6,0.5-0.9c0.2-0.2,0.5-0.5,0.8-0.5c0.7-0.2,1.5-0.2,2.2,0c0.3,0.2,0.6,0.3,0.8,0.5s0.5,0.5,0.6,0.9
		C714.1,36.7,714.1,37.1,714.1,37.5z M713.1,37.5c0-0.2,0-0.5-0.1-0.7s-0.2-0.4-0.3-0.6c-0.2-0.2-0.3-0.3-0.5-0.4
		c-0.5-0.2-1-0.2-1.5,0c-0.2,0.1-0.4,0.2-0.5,0.4c-0.2,0.2-0.2,0.4-0.3,0.6c-0.2,0.5-0.2,0.9,0,1.4c0.1,0.2,0.2,0.4,0.3,0.6
		c0.2,0.2,0.3,0.3,0.5,0.4c0.5,0.2,1,0.2,1.5,0c0.2-0.1,0.4-0.2,0.5-0.4s0.2-0.4,0.3-0.6C713,38,713.1,37.7,713.1,37.5z M718.2,36.2
		c-0.2-0.2-0.3-0.4-0.5-0.5c-0.2-0.2-0.5-0.2-0.7-0.2s-0.2,0-0.3,0s-0.2,0.1-0.3,0.2c-0.1,0.1-0.2,0.2-0.2,0.2
		c-0.1,0.1-0.1,0.2-0.1,0.3c0,0.2,0.1,0.4,0.3,0.5c0.3,0.2,0.5,0.2,0.8,0.3c0.2,0.1,0.5,0.2,0.7,0.2c0.2,0.1,0.4,0.2,0.5,0.3
		c0.2,0.1,0.3,0.2,0.4,0.5c0.1,0.2,0.2,0.4,0.2,0.6c0,0.2-0.1,0.5-0.2,0.8c-0.1,0.2-0.2,0.4-0.5,0.5s-0.4,0.2-0.6,0.3
		c-0.2,0.1-0.5,0.1-0.8,0.1c-0.4,0-0.8-0.1-1.2-0.2c-0.4-0.2-0.7-0.4-0.9-0.7l0.7-0.6c0.2,0.2,0.3,0.4,0.5,0.5s0.5,0.2,0.8,0.2
		c0.2,0,0.2,0,0.4,0c0.1,0,0.2-0.1,0.3-0.2c0.2-0.2,0.3-0.3,0.3-0.6c0-0.2-0.2-0.5-0.3-0.5c-0.3-0.2-0.7-0.2-1-0.3
		c-0.2-0.1-0.4-0.1-0.5-0.2c-0.2-0.1-0.3-0.2-0.5-0.2c-0.2-0.1-0.2-0.2-0.4-0.4c-0.1-0.2-0.2-0.4-0.2-0.6s0.1-0.5,0.2-0.7
		c0.1-0.2,0.2-0.4,0.5-0.5c0.2-0.2,0.4-0.2,0.6-0.3c0.2-0.1,0.5-0.1,0.7-0.1c0.4,0,0.7,0.1,1.1,0.2c0.3,0.2,0.6,0.3,0.8,0.6
		L718.2,36.2z M724,37c0-0.2-0.1-0.4-0.1-0.5c-0.1-0.2-0.2-0.3-0.2-0.5c-0.2-0.2-0.3-0.2-0.5-0.3s-0.4-0.2-0.6-0.1
		c-0.2,0-0.4,0-0.6,0.1c-0.2,0.1-0.4,0.2-0.5,0.3c-0.2,0.2-0.2,0.3-0.3,0.5S721,36.9,721,37H724z M725.1,37.4v0.2c0,0.1,0,0.1,0,0.2
		H721c0,0.2,0.1,0.4,0.2,0.6c0.1,0.2,0.2,0.4,0.4,0.5c0.3,0.3,0.7,0.5,1.2,0.5c0.3,0,0.6-0.1,0.9-0.2c0.2-0.2,0.5-0.3,0.6-0.5
		l0.7,0.5c-0.2,0.3-0.6,0.6-1,0.8c-0.8,0.3-1.5,0.3-2.3,0.1c-0.3-0.2-0.6-0.3-0.8-0.5s-0.5-0.5-0.5-0.9c-0.2-0.4-0.2-0.7-0.2-1.1
		s0.1-0.8,0.2-1.1s0.3-0.6,0.5-0.9c0.2-0.2,0.5-0.5,0.8-0.5c0.7-0.2,1.4-0.2,2.1,0c0.3,0.1,0.5,0.3,0.8,0.5c0.2,0.2,0.4,0.5,0.5,0.9
		C725,36.7,725.1,37,725.1,37.4z"/>
</g>
</svg>
