<?xml version="1.0" encoding="utf-8"?>
<!-- Generator: Adobe Illustrator 25.2.1, SVG Export Plug-In . SVG Version: 6.00 Build 0)  -->
<svg version="1.1" id="Layer_1" xmlns="http://www.w3.org/2000/svg" xmlns:xlink="http://www.w3.org/1999/xlink" x="0px" y="0px"
	 viewBox="0 0 35.8 38.4" style="enable-background:new 0 0 35.8 38.4;" xml:space="preserve">
<style type="text/css">
	.st0{fill:#FFFFFF;}
</style>
<g id="Hamburger" transform="translate(-693 -24)">
	<path id="Line_218" class="st0" d="M728.8,41.7H693v-1.6h35.8V41.7z"/>
	<path id="Line_219" class="st0" d="M728.8,48.2H693v-1.6h35.8V48.2z"/>
	<path id="Path_21426" class="st0" d="M701,59.4L701,59.4l2.4-6.2h1.8v8h-1.1v-6.7l0,0l-2.7,6.7h-0.7l-2.7-6.7l0,0v6.7h-1.1v-8h1.8
		L701,59.4z M711,58.1c0-0.2-0.1-0.4-0.1-0.6c-0.1-0.2-0.2-0.3-0.2-0.5c-0.2-0.2-0.3-0.2-0.5-0.3c-0.2-0.1-0.4-0.2-0.7-0.1
		c-0.2,0-0.4,0-0.7,0.1c-0.2,0.1-0.4,0.2-0.5,0.3c-0.2,0.2-0.2,0.3-0.3,0.5c-0.1,0.2-0.2,0.4-0.2,0.6H711z M712.1,58.5v0.2
		c0,0.1,0,0.1,0,0.2h-4.3c0,0.2,0.1,0.4,0.2,0.7c0.1,0.2,0.2,0.4,0.4,0.5c0.3,0.3,0.7,0.5,1.2,0.5c0.3,0,0.7-0.1,1-0.2
		c0.2-0.2,0.5-0.3,0.7-0.6l0.7,0.6c-0.2,0.3-0.7,0.7-1.1,0.8c-0.8,0.3-1.6,0.3-2.4,0.1c-0.3-0.2-0.7-0.3-0.9-0.6
		c-0.2-0.2-0.5-0.6-0.6-0.9c-0.2-0.4-0.2-0.7-0.2-1.1s0.1-0.8,0.2-1.1c0.2-0.3,0.3-0.7,0.6-0.9c0.2-0.2,0.6-0.5,0.9-0.6
		c0.7-0.2,1.5-0.2,2.2,0c0.3,0.1,0.6,0.3,0.8,0.6c0.2,0.2,0.4,0.6,0.5,0.9C712,57.8,712.1,58.1,712.1,58.5L712.1,58.5z M714.5,55.9
		c0,0.2,0,0.3,0,0.5c0,0.2,0,0.3,0,0.4l0,0c0.1-0.2,0.2-0.3,0.2-0.4c0.1-0.2,0.2-0.2,0.4-0.3c0.2-0.1,0.3-0.2,0.5-0.2
		c0.2-0.1,0.4-0.1,0.6-0.1c0.3,0,0.7,0.1,0.9,0.2c0.2,0.1,0.5,0.2,0.7,0.5s0.3,0.4,0.4,0.7c0.1,0.2,0.1,0.6,0.1,0.8v3.3h-1.1v-3
		c0-0.2,0-0.4-0.1-0.7c0-0.2-0.1-0.3-0.2-0.5c-0.1-0.2-0.2-0.2-0.4-0.3c-0.2-0.1-0.4-0.2-0.7-0.2c-0.4,0-0.8,0.2-1.1,0.5
		c-0.3,0.4-0.4,0.8-0.4,1.3v2.8h-1.1V57c0-0.2,0-0.3,0-0.6s0-0.4,0-0.6H714.5z M724,61.2c0-0.2,0-0.3,0-0.5s0-0.3,0-0.4l0,0
		c-0.2,0.3-0.4,0.6-0.7,0.7c-0.3,0.2-0.7,0.3-1.1,0.3c-0.3,0-0.7-0.1-0.9-0.2c-0.2-0.1-0.5-0.2-0.7-0.5s-0.3-0.4-0.3-0.7
		c-0.1-0.2-0.1-0.6-0.1-0.9v-3.3h1.1v3c0,0.2,0,0.4,0.1,0.7c0,0.2,0.1,0.4,0.2,0.6c0.1,0.2,0.2,0.2,0.4,0.3s0.4,0.2,0.7,0.2
		c0.4,0,0.8-0.2,1.1-0.5c0.2-0.4,0.4-0.8,0.4-1.3v-2.8h1.1v4.2c0,0.2,0,0.3,0,0.6c0,0.2,0,0.4,0,0.6C725.2,61.2,724,61.2,724,61.2z"
		/>
</g>
</svg>
